<?xml version="1.0" encoding="UTF-8" standalone="no"?> <svg width="24" height="24" viewBox="0 0 64 64" fill="none" xmlns="http://www.w3.org/2000/svg">
<path d="M27.4601 18.8901V23.9401C27.5337 26.03 28.4156 28.0096 29.9201 29.462C31.4245 30.9144 33.434 31.7261 35.5251 31.7261C37.6162 31.7261 39.6257 30.9144 41.1301 29.462C42.6346 28.0096 43.5165 26.03 43.5901 23.9401V18.8901H27.4601Z" fill="#78B9EB"/>
<path d="M35.5301 32.4297C34.4708 32.4284 33.4216 32.6359 32.4426 33.0404C31.4635 33.4448 30.5738 34.0383 29.8243 34.7869C29.0748 35.5354 28.4802 36.4244 28.0746 37.403C27.6689 38.3815 27.4601 39.4304 27.4601 40.4897V45.4897H43.5901V40.4897C43.5901 38.3521 42.7409 36.302 41.2294 34.7904C39.7178 33.2789 37.6677 32.4297 35.5301 32.4297Z" fill="#78B9EB"/>
<path d="M25.5601 40.3397V45.0897C25.5601 45.4875 25.7181 45.869 25.9994 46.1503C26.2807 46.4316 26.6622 46.5897 27.0601 46.5897H43.7401C44.1379 46.5897 44.5194 46.4316 44.8007 46.1503C45.082 45.869 45.2401 45.4875 45.2401 45.0897V40.3397C45.2387 38.6699 44.8119 37.0279 44.0001 35.5688C43.1883 34.1096 42.0182 32.8813 40.6001 31.9997C42.0182 31.1181 43.1883 29.8897 44.0001 28.4306C44.8119 26.9714 45.2387 25.3295 45.2401 23.6597V18.9097C45.2401 18.5118 45.082 18.1303 44.8007 17.849C44.5194 17.5677 44.1379 17.4097 43.7401 17.4097H27.0601C26.6622 17.4097 26.2807 17.5677 25.9994 17.849C25.7181 18.1303 25.5601 18.5118 25.5601 18.9097V23.6597C25.5615 25.3295 25.9882 26.9714 26.8 28.4306C27.6118 29.8897 28.782 31.1181 30.2001 31.9997C28.782 32.8813 27.6118 34.1096 26.8 35.5688C25.9882 37.0279 25.5615 38.6699 25.5601 40.3397V40.3397ZM28.5601 23.6597V20.4097H42.2401V23.6597C42.2401 25.4737 41.5194 27.2135 40.2367 28.4963C38.9539 29.779 37.2141 30.4997 35.4001 30.4997C33.586 30.4997 31.8462 29.779 30.5634 28.4963C29.2807 27.2135 28.5601 25.4737 28.5601 23.6597V23.6597ZM28.5601 40.3397C28.5601 38.5256 29.2807 36.7858 30.5634 35.5031C31.8462 34.2203 33.586 33.4997 35.4001 33.4997C37.2141 33.4997 38.9539 34.2203 40.2367 35.5031C41.5194 36.7858 42.2401 38.5256 42.2401 40.3397V43.5897H28.5601V40.3397Z" fill="#006DF0"/>
<path d="M35.4 5.8999C31.6925 5.90123 28.0278 6.69212 24.6497 8.21994C21.2717 9.74777 18.2577 11.9775 15.8084 14.7608C13.3591 17.544 11.5306 20.817 10.4446 24.3619C9.35863 27.9068 9.04004 31.6423 9.51005 35.3199L5.00004 31.5299C4.84837 31.3986 4.67231 31.2984 4.48193 31.2351C4.29154 31.1719 4.09055 31.1467 3.89044 31.1611C3.4863 31.1902 3.11026 31.3786 2.84504 31.6849C2.57983 31.9912 2.44716 32.3904 2.47623 32.7945C2.5053 33.1986 2.69372 33.5747 3.00004 33.8399L10.79 40.3299C11.0822 40.5934 11.4616 40.7393 11.855 40.7393C12.2485 40.7393 12.6279 40.5934 12.92 40.3299L13.02 40.2199L19.54 32.2199C19.7907 31.9109 19.9083 31.515 19.867 31.1193C19.8258 30.7236 19.629 30.3605 19.32 30.1099C19.0111 29.8593 18.6152 29.7416 18.2195 29.7829C17.8238 29.8242 17.4607 30.0209 17.21 30.3299L12.64 35.9999C12.4092 34.6792 12.2954 33.3406 12.3 31.9999C12.3008 26.4497 14.2998 21.0852 17.9315 16.8881C21.5631 12.6909 26.5846 9.94162 32.0771 9.14321C37.5696 8.34479 43.1659 9.55064 47.8423 12.5401C52.5186 15.5296 55.9622 20.1029 57.5431 25.4232C59.1241 30.7435 58.7366 36.4552 56.4515 41.5132C54.1665 46.5712 50.1367 50.6375 45.0995 52.9679C40.0622 55.2984 34.3543 55.7373 29.0199 54.2044C23.6856 52.6714 19.0815 49.2691 16.05 44.6199C15.9457 44.4478 15.8078 44.2984 15.6446 44.1807C15.4814 44.063 15.2961 43.9794 15.0998 43.9347C14.9036 43.8901 14.7004 43.8855 14.5023 43.921C14.3042 43.9566 14.1153 44.0316 13.9468 44.1417C13.7783 44.2518 13.6337 44.3946 13.5216 44.5618C13.4095 44.7289 13.3322 44.9169 13.2942 45.1145C13.2563 45.3122 13.2585 45.5154 13.3007 45.7122C13.3429 45.909 13.4243 46.0952 13.54 46.2599C16.0103 50.0467 19.4219 53.1269 23.4407 55.1987C27.4594 57.2704 31.9474 58.2626 36.465 58.0782C40.9825 57.8937 45.3747 56.5389 49.2111 54.1464C53.0476 51.7539 56.1967 48.4058 58.35 44.4302C60.5033 40.4545 61.5869 35.9877 61.4947 31.4673C61.4024 26.9469 60.1375 22.5281 57.8237 18.6436C55.51 14.7591 52.2269 11.5423 48.296 9.30837C44.3651 7.0744 39.9214 5.89989 35.4 5.8999V5.8999Z" fill="#006DF0"/>
</svg>
