<?xml version="1.0" encoding="utf-8"?>
<!-- Generator: Adobe Illustrator 16.0.0, SVG Export Plug-In . SVG Version: 6.00 Build 0)  -->
<!DOCTYPE svg PUBLIC "-//W3C//DTD SVG 1.1//EN" "http://www.w3.org/Graphics/SVG/1.1/DTD/svg11.dtd">
<svg version="1.1" id="Layer_1" xmlns="http://www.w3.org/2000/svg" xmlns:xlink="http://www.w3.org/1999/xlink" x="0px" y="0px"
	 width="24px" height="24px" viewBox="0 0 212.795 220.59" enable-background="new 0 0 212.795 220.59"
	 xml:space="preserve">
<path fill="#FDE19F" d="M161.223,62.345c0,28.527-24.546,51.653-54.825,51.653c-30.279,0-54.825-23.126-54.825-51.653
	c0-28.527,24.546-51.653,54.825-51.653C136.677,10.692,161.223,33.818,161.223,62.345"/>
<path fill="#10003B" d="M106.398,115.999c-31.334,0-56.825-24.069-56.825-53.654S75.064,8.692,106.398,8.692
	s56.825,24.068,56.825,53.653S137.732,115.999,106.398,115.999 M106.398,12.692c-29.128,0-52.825,22.274-52.825,49.653
	s23.697,49.654,52.825,49.654c29.128,0,52.825-22.275,52.825-49.654S135.526,12.692,106.398,12.692"/>
<path fill="#52C0F5" d="M187.05,205.072H25.746c-2.502,0-4.531-2.028-4.531-4.53v-1.451c0-47.045,38.138-85.183,85.184-85.183
	c47.045,0,85.182,38.138,85.182,85.183v1.451C191.581,203.044,189.552,205.072,187.05,205.072"/>
<path fill="#10003B" d="M187.05,207.072H25.746c-3.602,0-6.532-2.93-6.532-6.53v-1.451c0-48.073,39.111-87.183,87.184-87.183
	c48.072,0,87.183,39.11,87.183,87.183v1.451C193.581,204.142,190.651,207.072,187.05,207.072 M106.398,115.908
	c-45.867,0-83.184,37.315-83.184,83.183v1.451c0,1.395,1.136,2.53,2.532,2.53H187.05c1.396,0,2.531-1.135,2.531-2.53v-1.451
	C189.581,153.223,152.265,115.908,106.398,115.908"/>
<path fill="#10003B" d="M47.562,157.911c-0.408,0-0.821-0.125-1.177-0.384c-0.892-0.651-1.088-1.902-0.437-2.795
	c6.135-8.412,13.803-15.321,22.796-20.536c0.953-0.553,2.178-0.23,2.733,0.728c0.554,0.955,0.229,2.178-0.728,2.733
	c-8.387,4.864-15.846,11.584-21.569,19.433C48.789,157.626,48.179,157.911,47.562,157.911"/>
<rect x="118.178" y="146.623" fill="#FE7058" width="38.892" height="11.309"/>
<path fill="#10003B" d="M157.07,159.932h-38.891c-1.105,0-2-0.896-2-2v-11.309c0-1.104,0.895-2,2-2h38.891c1.105,0,2,0.896,2,2
	v11.309C159.07,159.036,158.175,159.932,157.07,159.932 M120.179,155.932h34.892v-7.309h-34.892V155.932z"/>
</svg>
