<svg xmlns="http://www.w3.org/2000/svg" xmlns:xlink="http://www.w3.org/1999/xlink" version="1.1" width="24" height="24" viewBox="0 0 256 256" xml:space="preserve">
<desc>Created with Fabric.js 1.7.22</desc>
<defs>
</defs>
<g transform="translate(128 128) scale(0.72 0.72)" style="">
	<g style="stroke: none; stroke-width: 0; stroke-dasharray: none; stroke-linecap: butt; stroke-linejoin: miter; stroke-miterlimit: 10; fill: none; fill-rule: nonzero; opacity: 1;" transform="translate(-175.05 -175.05000000000004) scale(3.89 3.89)" >
	<path d="M 89 78.571 h -3.679 V 33.467 c 0 -3.483 -2.834 -6.317 -6.317 -6.317 H 68.952 c -0.553 0 -1 0.448 -1 1 s 0.447 1 1 1 h 10.052 c 2.381 0 4.317 1.937 4.317 4.317 v 45.104 H 50.836 H 39.164 H 6.679 V 33.467 c 0 -2.38 1.937 -4.317 4.321 -4.317 l 10.267 -0.04 c 0.552 -0.002 0.998 -0.452 0.996 -1.004 c -0.002 -0.551 -0.449 -0.996 -1 -0.996 c -0.001 0 -0.002 0 -0.004 0 l -10.263 0.04 c -3.483 0 -6.317 2.834 -6.317 6.317 v 45.104 H 1 c -0.552 0 -1 0.447 -1 1 v 0.909 c 0 3.323 2.703 6.026 6.026 6.026 h 33.138 h 11.672 h 33.138 c 3.323 0 6.026 -2.703 6.026 -6.026 v -0.909 C 90 79.019 89.553 78.571 89 78.571 z M 6.026 84.507 c -2.189 0 -3.977 -1.757 -4.025 -3.936 h 2.678 h 34.485 v 3.936 H 6.026 z M 41.164 84.507 v -3.936 h 7.672 v 3.936 H 41.164 z M 83.974 84.507 H 50.836 v -3.936 h 34.485 h 2.678 C 87.95 82.75 86.163 84.507 83.974 84.507 z" style="stroke: none; stroke-width: 1; stroke-dasharray: none; stroke-linecap: butt; stroke-linejoin: miter; stroke-miterlimit: 10; fill: rgb(0,0,0); fill-rule: nonzero; opacity: 1;" transform=" matrix(1 0 0 1 0 0) " stroke-linecap="round" />
	<path d="M 78.888 74.571 c 0.553 0 1 -0.447 1 -1 V 35.793 c 0 -1.569 -1.276 -2.846 -2.846 -2.846 h -8.09 c -0.553 0 -1 0.448 -1 1 s 0.447 1 1 1 h 8.09 c 0.467 0 0.846 0.379 0.846 0.846 v 37.778 C 77.888 74.124 78.335 74.571 78.888 74.571 z" style="stroke: none; stroke-width: 1; stroke-dasharray: none; stroke-linecap: butt; stroke-linejoin: miter; stroke-miterlimit: 10; fill: rgb(0,0,0); fill-rule: nonzero; opacity: 1;" transform=" matrix(1 0 0 1 0 0) " stroke-linecap="round" />
	<path d="M 21.263 32.947 h -8.305 c -1.569 0 -2.846 1.277 -2.846 2.846 v 37.778 c 0 0.553 0.448 1 1 1 s 1 -0.447 1 -1 V 35.793 c 0 -0.467 0.379 -0.846 0.846 -0.846 h 8.305 c 0.552 0 1 -0.448 1 -1 S 21.815 32.947 21.263 32.947 z" style="stroke: none; stroke-width: 1; stroke-dasharray: none; stroke-linecap: butt; stroke-linejoin: miter; stroke-miterlimit: 10; fill: rgb(0,0,0); fill-rule: nonzero; opacity: 1;" transform=" matrix(1 0 0 1 0 0) " stroke-linecap="round" />
	<path d="M 30.282 31.651 h 15.245 l 10.125 8.473 c 0.184 0.153 0.411 0.233 0.642 0.233 c 0.144 0 0.288 -0.031 0.423 -0.094 c 0.353 -0.165 0.577 -0.518 0.577 -0.906 v -7.706 h 2.424 c 2.376 0 4.31 -1.933 4.31 -4.31 V 7.803 c 0 -2.376 -1.934 -4.309 -4.31 -4.309 H 30.282 c -2.376 0 -4.31 1.933 -4.31 4.309 v 19.539 C 25.973 29.718 27.906 31.651 30.282 31.651 z M 27.973 7.803 c 0 -1.273 1.036 -2.309 2.31 -2.309 h 29.436 c 1.273 0 2.31 1.036 2.31 2.309 v 19.539 c 0 1.273 -1.036 2.31 -2.31 2.31 h -3.424 c -0.553 0 -1 0.448 -1 1 v 6.565 l -8.762 -7.333 c -0.18 -0.15 -0.407 -0.233 -0.642 -0.233 H 30.282 c -1.273 0 -2.31 -1.036 -2.31 -2.31 V 7.803 z" style="stroke: none; stroke-width: 1; stroke-dasharray: none; stroke-linecap: butt; stroke-linejoin: miter; stroke-miterlimit: 10; fill: rgb(0,0,0); fill-rule: nonzero; opacity: 1;" transform=" matrix(1 0 0 1 0 0) " stroke-linecap="round" />
	<path d="M 30.282 64.287 h 2.424 v 7.706 c 0 0.389 0.225 0.741 0.577 0.906 c 0.135 0.063 0.28 0.094 0.423 0.094 c 0.23 0 0.458 -0.079 0.642 -0.233 l 10.124 -8.473 h 15.246 c 2.376 0 4.31 -1.934 4.31 -4.31 V 40.439 c 0 -1.458 -0.729 -2.807 -1.95 -3.606 c -0.462 -0.303 -1.081 -0.172 -1.385 0.289 c -0.302 0.462 -0.173 1.082 0.289 1.384 c 0.655 0.429 1.046 1.151 1.046 1.933 v 19.539 c 0 1.273 -1.036 2.31 -2.31 2.31 H 44.109 c -0.047 0 -0.087 0.02 -0.131 0.026 c -0.071 0.009 -0.139 0.017 -0.208 0.042 c -0.068 0.025 -0.125 0.063 -0.185 0.101 c -0.039 0.024 -0.082 0.034 -0.118 0.064 l -8.761 7.332 v -6.565 c 0 -0.553 -0.448 -1 -1 -1 h -3.424 c -1.273 0 -2.31 -1.036 -2.31 -2.31 V 40.439 c 0 -1.273 1.036 -2.309 2.31 -2.309 h 17.157 c 0.553 0 1 -0.448 1 -1 s -0.447 -1 -1 -1 H 30.282 c -2.376 0 -4.31 1.933 -4.31 4.309 v 19.539 C 25.973 62.354 27.906 64.287 30.282 64.287 z" style="stroke: none; stroke-width: 1; stroke-dasharray: none; stroke-linecap: butt; stroke-linejoin: miter; stroke-miterlimit: 10; fill: rgb(0,0,0); fill-rule: nonzero; opacity: 1;" transform=" matrix(1 0 0 1 0 0) " stroke-linecap="round" />
	<path d="M 49.492 59.408 c 0.553 0 1 -0.447 1 -1 V 47.021 c 0 -3.029 -2.464 -5.493 -5.492 -5.493 c -3.029 0 -5.493 2.464 -5.493 5.493 v 11.387 c 0 0.553 0.448 1 1 1 s 1 -0.447 1 -1 v -5.877 h 6.985 v 5.877 C 48.492 58.961 48.939 59.408 49.492 59.408 z M 41.507 50.531 v -3.51 c 0 -1.926 1.567 -3.493 3.493 -3.493 s 3.492 1.567 3.492 3.493 v 3.51 H 41.507 z" style="stroke: none; stroke-width: 1; stroke-dasharray: none; stroke-linecap: butt; stroke-linejoin: miter; stroke-miterlimit: 10; fill: rgb(0,0,0); fill-rule: nonzero; opacity: 1;" transform=" matrix(1 0 0 1 0 0) " stroke-linecap="round" />
	<path d="M 44.852 26.66 c 1.158 0 2.231 -0.362 3.118 -0.976 l 0.964 0.964 c 0.195 0.195 0.451 0.293 0.707 0.293 s 0.512 -0.098 0.707 -0.293 c 0.391 -0.391 0.391 -1.023 0 -1.414 l -0.966 -0.966 c 0.606 -0.883 0.963 -1.95 0.963 -3.1 v -2.372 v -2.151 v -2.371 c 0 -3.029 -2.464 -5.493 -5.493 -5.493 c -3.028 0 -5.492 2.464 -5.492 5.493 v 2.384 v 2.125 v 2.385 C 39.36 24.196 41.824 26.66 44.852 26.66 z M 41.36 14.274 c 0 -1.926 1.566 -3.493 3.492 -3.493 c 1.926 0 3.493 1.567 3.493 3.493 v 2.371 v 2.151 v 2.372 c 0 0.595 -0.163 1.146 -0.426 1.637 l -2.359 -2.359 c -0.391 -0.391 -1.023 -0.391 -1.414 0 s -0.391 1.023 0 1.414 l 2.364 2.363 c -0.495 0.27 -1.054 0.437 -1.657 0.437 c -1.926 0 -3.492 -1.566 -3.492 -3.492 v -2.385 v -2.125 V 14.274 z" style="stroke: none; stroke-width: 1; stroke-dasharray: none; stroke-linecap: butt; stroke-linejoin: miter; stroke-miterlimit: 10; fill: rgb(0,0,0); fill-rule: nonzero; opacity: 1;" transform=" matrix(1 0 0 1 0 0) " stroke-linecap="round" />
</g>
</g>
</svg>